<svg width="30" height="30" viewBox="0 0 30 30" fill="none" xmlns="http://www.w3.org/2000/svg">
<path d="M20 20L15 15L10 20" stroke="#2851E3" stroke-width="2" stroke-linecap="round" stroke-linejoin="round"/>
<path d="M15 15V26.25" stroke="#2851E3" stroke-width="2" stroke-linecap="round" stroke-linejoin="round"/>
<path d="M25.4875 22.9874C26.7067 22.3227 27.6698 21.271 28.2248 19.9981C28.7799 18.7253 28.8953 17.3039 28.5528 15.9582C28.2102 14.6125 27.4294 13.4192 26.3333 12.5667C25.2373 11.7141 23.8886 11.2508 22.5 11.2499H20.925C20.5466 9.78641 19.8414 8.42778 18.8624 7.2761C17.8834 6.12442 16.6561 5.20967 15.2726 4.60062C13.8892 3.99156 12.3857 3.70406 10.8751 3.75971C9.3646 3.81537 7.88633 4.21273 6.55147 4.92194C5.21661 5.63115 4.05989 6.63374 3.16828 7.85434C2.27666 9.07493 1.67336 10.4818 1.40372 11.9691C1.13409 13.4564 1.20513 14.9855 1.61152 16.4414C2.0179 17.8973 2.74905 19.2422 3.75 20.3749" stroke="#2851E3" stroke-width="2" stroke-linecap="round" stroke-linejoin="round"/>
<path d="M20 20L15 15L10 20" stroke="#2851E3" stroke-width="2" stroke-linecap="round" stroke-linejoin="round"/>
</svg>
