<?xml version="1.0" encoding="UTF-8" standalone="no"?>
<!DOCTYPE svg PUBLIC "-//W3C//DTD SVG 1.1//EN" "http://www.w3.org/Graphics/SVG/1.1/DTD/svg11.dtd">
<svg width="100%" height="100%" viewBox="0 0 539 320" version="1.1" xmlns="http://www.w3.org/2000/svg" xmlns:xlink="http://www.w3.org/1999/xlink" xml:space="preserve" xmlns:serif="http://www.serif.com/" style="fill-rule:evenodd;clip-rule:evenodd;stroke-linecap:round;stroke-linejoin:round;stroke-miterlimit:1.5;">
    <g id="rasslin" transform="matrix(-0.896833,-0.00330284,0.00368276,-0.999993,535.596,1084.99)">
        <rect x="0" y="764" width="601" height="320" style="fill:none;"/>
        <g>
            <clipPath id="_clip1">
                <rect x="0" y="764" width="601" height="320"/>
            </clipPath>
            <g clip-path="url(#_clip1)">
                <g id="wrestling-ring" transform="matrix(4.21047,0,0,3.33333,-547.362,464)">
                    <g transform="matrix(1.6,0,0,1.2,-78,-31.2)">
                        <rect x="130" y="156" width="70" height="25" style="fill:rgb(175,214,232);stroke:black;stroke-width:0.2px;"/>
                    </g>
                    <path d="M130,156L242,156L272,122L175,122L130,156Z" style="fill:rgb(246,239,236);stroke:black;stroke-width:0.28px;"/>
                    <path d="M242,156L272,122L272,156L242,186L242,156Z" style="fill:rgb(175,214,232);stroke:black;stroke-width:0.28px;"/>
                    <path d="M130,156L130,122" style="fill:none;stroke:black;stroke-width:0.28px;"/>
                    <path d="M176,122L176,90" style="fill:none;stroke:black;stroke-width:0.28px;"/>
                    <path d="M272,122L272,90" style="fill:none;stroke:black;stroke-width:0.28px;"/>
                    <path d="M242,154L242,122" style="fill:none;stroke:black;stroke-width:0.28px;"/>
                    <path d="M130,122L176,90" style="fill:none;stroke:black;stroke-width:0.28px;"/>
                    <path d="M176,90L272,90" style="fill:none;stroke:black;stroke-width:0.28px;"/>
                    <path d="M242,122L272,90" style="fill:none;stroke:black;stroke-width:0.28px;"/>
                    <path d="M242,122L130,122" style="fill:none;stroke:black;stroke-width:0.28px;"/>
                    <path d="M176,97L130,130" style="fill:none;stroke:black;stroke-width:0.28px;"/>
                    <path d="M176,97L272,97" style="fill:none;stroke:black;stroke-width:0.28px;"/>
                    <path d="M272,97L242,130L130,130" style="fill:none;stroke:black;stroke-width:0.28px;"/>
                    <path d="M130,139L176,106L272,106L242,139L130,139Z" style="fill:none;stroke:black;stroke-width:0.28px;"/>
                </g>
            </g>
        </g>
    </g>
</svg>
