<?xml version="1.0" encoding="UTF-8"?><svg xmlns="http://www.w3.org/2000/svg" viewBox="0 0 52.78 53.57"><defs><style>.d{fill:#1d1705;}</style></defs><g id="a"/><g id="b"><g id="c"><path class="d" d="M11.4,52.97C4.27,49.61-3.97,21.81,2.12,8.89,5.77,1.16,15.03-2.17,22.76,1.48c4.21,1.98,7.11,5.63,8.3,9.79,3.96-1.73,8.62-1.81,12.83,.17,7.74,3.65,11.06,12.91,7.41,20.64-6.09,12.91-32.77,24.25-39.9,20.89Zm3.5-6.79h0ZM19.5,8.41c-3.91-1.85-8.6-.16-10.45,3.75-4.57,9.7,2.37,30.55,5.64,33.83,4.61,.44,25.11-7.48,29.68-17.17,1.85-3.92,.16-8.6-3.75-10.45s-8.6-.16-10.45,3.75c-.9,1.91-3.18,2.73-5.1,1.83s-2.73-3.18-1.83-5.1c1.85-3.92,.16-8.6-3.75-10.45Z"/></g></g></svg>