<svg width="652" height="472" viewBox="0 0 652 472" fill="none" xmlns="http://www.w3.org/2000/svg">
<rect width="652" height="472" fill="#EFF3FD"/>
<path d="M352.833 201.5H299.167C294.932 201.5 291.5 204.932 291.5 209.167V262.833C291.5 267.068 294.932 270.5 299.167 270.5H352.833C357.068 270.5 360.5 267.068 360.5 262.833V209.167C360.5 204.932 357.068 201.5 352.833 201.5Z" stroke="#212121" stroke-width="3" stroke-linecap="round" stroke-linejoin="round"/>
<path d="M312.583 228.333C315.759 228.333 318.333 225.759 318.333 222.583C318.333 219.408 315.759 216.833 312.583 216.833C309.408 216.833 306.833 219.408 306.833 222.583C306.833 225.759 309.408 228.333 312.583 228.333Z" stroke="#212121" stroke-width="3" stroke-linecap="round" stroke-linejoin="round"/>
<path d="M360.5 247.5L341.333 228.333L299.167 270.5" stroke="#212121" stroke-width="3" stroke-linecap="round" stroke-linejoin="round"/>
</svg>
